<?xml version="1.0" standalone="no"?>
<!DOCTYPE svg PUBLIC "-//W3C//DTD SVG 20010904//EN"
 "http://www.w3.org/TR/2001/REC-SVG-20010904/DTD/svg10.dtd">
<svg version="1.0" xmlns="http://www.w3.org/2000/svg"
 width="100.000000pt" height="100.000000pt" viewBox="0 0 100.000000 100.000000"
 preserveAspectRatio="xMidYMid meet">

<g transform="translate(0.000000,100.000000) scale(0.100000,-0.100000)"
fill="#000000" stroke="none">
<path d="M350 924 c0 -41 4 -63 10 -59 6 3 10 33 10 66 0 33 -4 59 -10 59 -6
0 -10 -29 -10 -66z"/>
<path d="M245 893 c7 -30 21 -50 30 -41 8 8 -16 68 -27 68 -6 0 -7 -11 -3 -27z"/>
<path d="M452 895 c-14 -31 -15 -45 -4 -45 9 0 32 44 32 60 0 19 -17 10 -28
-15z"/>
<path d="M266 796 c-55 -33 -86 -88 -86 -154 0 -106 76 -182 181 -182 48 0 97
20 123 49 25 27 4 28 -34 1 -63 -45 -140 -38 -199 18 -67 64 -68 157 -2 223
59 60 149 65 211 12 35 -29 53 -24 24 8 -50 55 -150 67 -218 25z"/>
<path d="M350 747 c0 -7 -10 -17 -22 -22 -34 -15 -36 -59 -4 -81 16 -10 26
-26 26 -40 0 -26 -10 -30 -28 -12 -6 6 -14 9 -17 6 -10 -10 7 -37 26 -43 10
-4 19 -13 19 -21 0 -8 5 -14 10 -14 6 0 10 6 10 14 0 8 9 18 20 21 11 3 23 18
26 32 6 21 2 31 -19 48 -18 14 -27 30 -27 49 0 28 0 29 20 11 11 -10 23 -16
26 -12 9 9 -16 47 -31 47 -8 0 -15 7 -15 15 0 8 -4 15 -10 15 -5 0 -10 -6 -10
-13z m-4 -85 c-4 -3 -11 -1 -18 6 -8 8 -8 15 3 28 13 16 14 16 17 -5 2 -13 1
-25 -2 -29z m44 -62 c0 -11 -4 -20 -10 -20 -5 0 -10 9 -10 20 0 11 5 20 10 20
6 0 10 -9 10 -20z"/>
<path d="M530 714 c-30 -14 -56 -27 -58 -29 -2 -1 22 -58 52 -125 31 -68 56
-127 56 -131 0 -5 -111 -10 -247 -11 l-248 -3 0 -205 0 -205 275 0 275 0 5
145 5 144 54 -119 c30 -66 56 -122 58 -124 4 -5 86 27 107 42 16 12 16 15 -3
57 -27 59 -26 66 8 73 42 9 58 54 36 100 -21 46 -55 76 -102 92 -40 14 -41 17
-22 80 31 106 -44 202 -117 150 -20 -13 -22 -11 -45 36 -12 28 -26 52 -29 54
-4 2 -31 -7 -60 -21z m85 -80 c19 -42 35 -82 35 -88 0 -10 -52 -36 -72 -36 -7
0 -80 161 -76 166 4 3 70 33 76 34 1 0 18 -34 37 -76z m132 -20 c21 -33 22
-109 1 -149 l-17 -30 -35 78 c-41 89 -41 90 -20 111 23 24 51 19 71 -10z m12
-301 c1 -11 -68 -48 -75 -40 -7 6 -94 199 -94 206 0 5 17 15 38 23 l37 15 47
-96 c26 -53 47 -102 47 -108z m68 66 c58 -36 80 -108 41 -133 -27 -17 -49 2
-85 75 -17 35 -32 67 -32 72 -2 14 42 7 76 -14z m-557 -169 l0 -180 -80 0 -80
0 0 180 0 180 80 0 80 0 0 -180z m160 0 l0 -180 -70 0 -70 0 0 180 0 180 70 0
70 0 0 -180z m178 -2 l2 -178 -80 0 -80 0 0 180 0 181 78 -3 77 -3 3 -177z
m202 0 c18 -40 35 -79 37 -86 4 -10 -50 -42 -72 -42 -7 0 -75 146 -75 161 0 7
52 36 71 38 4 1 21 -32 39 -71z"/>
</g>
</svg>
