<?xml version="1.0" standalone="no"?>
<!DOCTYPE svg PUBLIC "-//W3C//DTD SVG 20010904//EN"
 "http://www.w3.org/TR/2001/REC-SVG-20010904/DTD/svg10.dtd">
<svg version="1.0" xmlns="http://www.w3.org/2000/svg"
 width="50.000000pt" height="50.000000pt" viewBox="0 0 50.000000 50.000000"
 preserveAspectRatio="xMidYMid meet">

<g transform="translate(0.000000,50.000000) scale(0.100000,-0.100000)"
fill="#000000" stroke="none">
<path d="M170 410 c0 -5 16 -10 35 -10 19 0 35 5 35 10 0 6 -16 10 -35 10 -19
0 -35 -4 -35 -10z"/>
<path d="M318 403 c7 -3 16 -2 19 1 4 3 -2 6 -13 5 -11 0 -14 -3 -6 -6z"/>
<path d="M153 383 c32 -2 81 -2 110 0 29 2 3 3 -58 3 -60 0 -84 -1 -52 -3z"/>
<path d="M330 381 c0 -5 11 -12 25 -15 14 -4 25 -11 25 -16 0 -6 -9 -6 -26 0
-33 13 -34 13 -34 -5 0 -22 22 -28 56 -15 l29 12 -28 24 c-29 25 -47 31 -47
15z"/>
<path d="M104 308 c3 -29 6 -92 6 -140 l0 -88 90 0 c118 0 120 19 3 22 -49 1
-69 3 -45 5 51 5 46 22 -6 24 -28 2 -30 3 -11 6 25 4 26 7 21 52 -4 43 -1 52
26 82 24 27 37 33 71 33 38 1 41 3 41 29 l0 27 -101 0 -102 0 7 -52z m35 -55
c0 -64 -3 -91 -9 -78 -12 28 -12 175 0 175 6 0 10 -39 9 -97z m31 57 c0 -22
-4 -40 -10 -40 -5 0 -10 18 -10 40 0 22 5 40 10 40 6 0 10 -18 10 -40z m40 15
c0 -14 -4 -25 -10 -25 -5 0 -10 11 -10 25 0 14 5 25 10 25 6 0 10 -11 10 -25z
m40 10 c0 -8 -4 -15 -10 -15 -5 0 -10 7 -10 15 0 8 5 15 10 15 6 0 10 -7 10
-15z m27 -7 c-3 -8 -6 -5 -6 6 -1 11 2 17 5 13 3 -3 4 -12 1 -19z"/>
<path d="M207 270 c-49 -39 -42 -116 14 -145 38 -20 62 -19 93 6 35 27 28 35
-12 12 -57 -33 -124 18 -108 81 7 29 58 58 85 48 26 -9 52 -35 47 -47 -7 -20
11 -42 24 -29 15 15 -11 69 -39 84 -31 16 -76 12 -104 -10z"/>
<path d="M226 245 c-20 -21 -21 -69 -1 -85 21 -17 64 -16 82 3 14 14 14 19 1
54 -18 43 -54 56 -82 28z m59 -40 c0 -32 -16 -47 -35 -35 -12 8 -12 10 4 10
19 0 19 0 1 14 -16 12 -17 16 -6 29 17 21 37 12 36 -18z"/>
</g>
</svg>
