<?xml version="1.0" standalone="no"?>
<!DOCTYPE svg PUBLIC "-//W3C//DTD SVG 20010904//EN"
 "http://www.w3.org/TR/2001/REC-SVG-20010904/DTD/svg10.dtd">
<svg version="1.0" xmlns="http://www.w3.org/2000/svg"
 width="64.000000pt" height="64.000000pt" viewBox="0 0 64.000000 64.000000"
 preserveAspectRatio="xMidYMid meet">

<g transform="translate(0.000000,64.000000) scale(0.100000,-0.100000)"
fill="#000000" stroke="none">
<path d="M465 585 c-17 -13 -35 -24 -40 -25 -6 0 -33 -22 -60 -50 -34 -35 -44
-50 -32 -50 9 0 17 -7 17 -15 0 -11 7 -14 25 -9 17 4 25 2 25 -7 0 -7 18 5 40
26 22 21 40 46 40 54 0 8 11 27 25 41 24 25 25 27 7 43 -16 15 -20 15 -47 -8z
m35 -15 c0 -5 -4 -10 -10 -10 -5 0 -10 5 -10 10 0 6 5 10 10 10 6 0 10 -4 10
-10z m-29 -33 c-6 -6 -11 -18 -11 -27 0 -19 -37 -56 -46 -47 -4 3 -15 2 -24
-3 -14 -7 -19 -5 -23 9 -5 22 40 71 65 71 9 0 20 5 23 10 4 6 11 7 17 4 6 -4
6 -10 -1 -17z"/>
<path d="M255 511 c-50 -23 -68 -43 -94 -104 -22 -51 -27 -97 -12 -97 13 0 19
-38 26 -172 l7 -118 134 0 c99 0 136 3 139 13 2 6 8 70 13 141 6 83 13 131 20
134 17 5 15 43 -4 87 -12 29 -19 35 -32 29 -9 -4 -35 -9 -57 -12 -69 -7 -120
52 -80 92 8 8 15 17 15 20 0 11 -36 5 -75 -13z m29 -26 c-14 -58 69 -110 141
-88 36 11 45 8 45 -14 0 -10 -32 -13 -151 -13 l-151 0 6 28 c10 40 38 75 77
94 43 22 41 23 33 -7z m196 -145 c0 -6 -60 -10 -160 -10 -100 0 -160 4 -160
10 0 6 60 10 160 10 100 0 160 -4 160 -10z m-25 -132 c-3 -57 -8 -118 -11
-135 l-5 -33 -119 0 -119 0 -5 33 c-3 17 -8 78 -11 135 l-7 102 142 0 142 0
-7 -102z"/>
<path d="M290 275 c0 -9 -12 -27 -27 -39 -33 -29 -38 -92 -10 -123 9 -11 17
-27 17 -36 0 -14 10 -17 50 -17 40 0 50 3 50 17 0 9 8 25 17 36 28 31 23 94
-10 123 -15 12 -27 30 -27 39 0 10 -10 15 -30 15 -20 0 -30 -5 -30 -15z m40
-15 c0 -5 -4 -10 -10 -10 -5 0 -10 5 -10 10 0 6 5 10 10 10 6 0 10 -4 10 -10z
m-46 -47 c-4 -10 -9 -35 -12 -57 -3 -27 -7 -34 -13 -25 -12 19 -11 56 1 80 13
24 35 26 24 2z m50 0 c3 -10 9 -24 12 -30 4 -9 -4 -13 -26 -13 -22 0 -30 4
-26 13 3 6 9 20 12 30 4 9 10 17 14 17 4 0 10 -8 14 -17z m50 -15 c5 -14 5
-38 1 -54 l-8 -29 -7 40 c-4 22 -11 48 -15 59 -6 14 -5 18 6 14 8 -3 18 -16
23 -30z m-34 -63 c0 -10 -10 -15 -30 -15 -20 0 -30 5 -30 15 0 10 10 15 30 15
20 0 30 -5 30 -15z m0 -45 c0 -5 -13 -10 -30 -10 -16 0 -30 5 -30 10 0 6 14
10 30 10 17 0 30 -4 30 -10z"/>
</g>
</svg>
