<?xml version="1.0" standalone="no"?>
<!DOCTYPE svg PUBLIC "-//W3C//DTD SVG 20010904//EN"
 "http://www.w3.org/TR/2001/REC-SVG-20010904/DTD/svg10.dtd">
<svg version="1.0" xmlns="http://www.w3.org/2000/svg"
 width="100.000000pt" height="100.000000pt" viewBox="0 0 100.000000 100.000000"
 preserveAspectRatio="xMidYMid meet">

<g transform="translate(0.000000,100.000000) scale(0.100000,-0.100000)"
fill="#000000" stroke="none">
<path d="M350 806 c-14 -8 -42 -46 -63 -84 l-38 -71 53 6 53 5 24 -40 c14 -23
29 -38 33 -36 5 3 17 23 28 45 16 30 17 39 7 39 -8 0 -19 -12 -26 -27 l-12
-27 -19 30 c-15 22 -29 30 -60 34 l-40 5 32 50 c29 44 37 50 68 50 32 0 39 -6
82 -70 26 -38 48 -73 48 -76 0 -3 -12 -12 -27 -19 -27 -13 -26 -14 37 -21 36
-4 84 -10 107 -13 l41 -5 12 72 c6 40 14 80 17 90 5 18 3 18 -20 2 -24 -16
-25 -15 -47 20 -12 19 -30 40 -40 45 -29 15 -220 12 -250 -4z m276 -61 c14
-25 30 -45 35 -45 10 0 12 -34 2 -69 -5 -21 -10 -23 -55 -19 -26 3 -50 7 -51
9 -2 2 -26 41 -54 87 l-52 82 74 0 74 0 27 -45z"/>
<path d="M216 597 c-78 -20 -79 -20 -58 -37 20 -17 21 -19 6 -49 -16 -31 -15
-34 32 -132 26 -54 56 -107 67 -117 14 -13 41 -18 104 -21 l86 -3 -33 45 -32
45 26 38 c14 21 26 42 26 46 0 5 -22 8 -50 8 -27 0 -50 -4 -50 -10 0 -5 14
-10 30 -10 35 0 36 -2 13 -40 -15 -26 -15 -32 -3 -57 8 -15 16 -31 18 -35 5
-11 -72 -10 -102 2 -42 16 -43 53 -5 131 21 45 38 68 46 64 7 -3 20 -8 28 -11
10 -4 14 -2 11 7 -3 8 -14 47 -26 87 -24 82 -17 80 -134 49z m103 -19 c19 -52
22 -78 8 -78 -7 0 -30 -35 -51 -77 l-38 -78 -29 55 c-32 64 -35 87 -13 118 12
17 13 26 5 36 -9 11 0 17 46 29 32 8 59 15 61 16 1 1 6 -9 11 -21z"/>
<path d="M714 574 c-27 -34 -28 -35 -81 -28 l-53 6 19 -43 c11 -24 25 -45 30
-47 14 -5 14 14 1 39 -10 17 -7 19 28 19 26 0 45 7 57 20 25 28 30 26 48 -20
l15 -40 -27 0 c-29 0 -68 -23 -89 -52 -8 -11 -26 -18 -48 -18 -32 0 -34 2 -34
32 l0 32 -75 -74 -75 -74 67 -68 c37 -38 71 -68 75 -68 5 0 8 11 8 25 0 22 4
25 33 25 18 0 43 7 55 16 14 10 30 13 45 8 118 -37 205 95 119 183 -15 15 -40
58 -56 96 -15 37 -30 67 -32 67 -1 0 -15 -16 -30 -36z m103 -147 c54 -55 16
-147 -62 -147 -98 0 -118 138 -25 173 24 9 63 -3 87 -26z m-224 -37 c42 0 42
-1 59 -53 9 -28 14 -55 11 -59 -2 -5 -27 -8 -54 -8 -36 0 -51 -4 -56 -16 -4
-12 -15 -7 -49 27 l-44 43 42 43 c24 24 44 39 46 33 2 -5 22 -10 45 -10z"/>
<path d="M769 376 c-22 -33 -25 -34 -41 -19 -29 26 -34 5 -6 -23 l25 -26 32
43 c17 24 31 47 31 51 0 18 -19 6 -41 -26z"/>
</g>
</svg>
