<?xml version="1.0" standalone="no"?>
<!DOCTYPE svg PUBLIC "-//W3C//DTD SVG 20010904//EN"
 "http://www.w3.org/TR/2001/REC-SVG-20010904/DTD/svg10.dtd">
<svg version="1.0" xmlns="http://www.w3.org/2000/svg"
 width="100.000000pt" height="100.000000pt" viewBox="0 0 100.000000 100.000000"
 preserveAspectRatio="xMidYMid meet">

<g transform="translate(0.000000,100.000000) scale(0.100000,-0.100000)"
fill="#000000" stroke="none">
<path d="M337 834 c-18 -18 -1 -24 69 -24 56 0 75 3 72 13 -5 13 -129 23 -141
11z"/>
<path d="M633 823 c-22 -8 -14 -23 12 -23 16 0 25 6 25 15 0 15 -14 18 -37 8z"/>
<path d="M190 765 c0 -13 31 -15 215 -15 184 0 215 2 215 15 0 13 -31 15 -215
15 -184 0 -215 -2 -215 -15z"/>
<path d="M667 772 c-30 -6 -14 -24 36 -39 44 -13 65 -28 54 -39 -3 -3 -26 2
-51 10 -66 23 -76 21 -76 -14 0 -53 55 -63 144 -25 l39 16 -43 44 c-42 42 -68
54 -103 47z"/>
<path d="M206 598 c3 -68 9 -193 12 -278 l7 -155 180 0 c152 0 180 2 183 15 2
13 -22 15 -169 15 -129 0 -173 3 -176 13 -4 9 18 12 88 12 l92 0 -26 20 c-19
15 -40 20 -92 20 -49 0 -66 3 -63 13 3 7 26 13 56 15 l52 3 -15 29 c-21 41
-19 133 4 178 40 79 105 115 197 110 63 -3 64 -3 64 23 0 15 3 41 6 58 l6 31
-206 0 -206 0 6 -122z m64 54 c0 -27 3 -110 7 -185 5 -123 4 -137 -10 -137
-15 0 -17 15 -17 124 0 67 -3 151 -6 185 -6 52 -5 61 10 61 13 0 16 -10 16
-48z m70 -37 c0 -69 -3 -85 -15 -85 -12 0 -15 16 -15 85 0 69 3 85 15 85 12 0
15 -16 15 -85z m80 35 c0 -38 -4 -50 -15 -50 -11 0 -15 12 -15 50 0 38 4 50
15 50 11 0 15 -12 15 -50z m80 15 c0 -24 -5 -35 -15 -35 -10 0 -15 11 -15 35
0 24 5 35 15 35 10 0 15 -11 15 -35z m68 8 c-4 -39 -28 -42 -28 -4 0 21 5 31
16 31 11 0 14 -8 12 -27z"/>
<path d="M467 576 c-132 -49 -166 -214 -62 -304 89 -79 223 -60 279 38 15 27
16 32 4 22 -11 -9 -18 -10 -23 -2 -4 6 -16 -2 -31 -19 -30 -36 -84 -55 -130
-48 -143 23 -164 221 -30 272 74 29 146 3 181 -66 14 -26 14 -29 0 -29 -13 0
-13 -4 2 -35 9 -19 20 -35 24 -35 12 0 50 58 40 62 -4 1 -17 24 -29 50 -36 83
-139 126 -225 94z"/>
<path d="M464 501 c-63 -39 -71 -132 -14 -183 41 -38 106 -39 149 -3 42 36 46
58 19 106 -17 31 -20 42 -9 48 9 6 6 14 -15 30 -33 26 -88 27 -130 2z m97 -41
c5 0 9 -7 9 -15 0 -9 -9 -15 -25 -15 -31 0 -33 -17 -2 -22 13 -2 23 -11 25
-24 4 -27 -28 -55 -56 -47 -30 8 -28 33 3 33 31 0 33 17 3 22 -13 2 -24 11
-26 21 -5 23 27 59 46 52 7 -3 18 -5 23 -5z"/>
</g>
</svg>
