<?xml version="1.0" standalone="no"?>
<!DOCTYPE svg PUBLIC "-//W3C//DTD SVG 20010904//EN"
 "http://www.w3.org/TR/2001/REC-SVG-20010904/DTD/svg10.dtd">
<svg version="1.0" xmlns="http://www.w3.org/2000/svg"
 width="64.000000pt" height="64.000000pt" viewBox="0 0 64.000000 64.000000"
 preserveAspectRatio="xMidYMid meet">

<g transform="translate(0.000000,64.000000) scale(0.100000,-0.100000)"
fill="#000000" stroke="none">
<path d="M20 331 c0 -239 2 -291 14 -300 22 -19 554 -12 573 7 10 10 13 51 13
163 0 160 -9 203 -49 231 -17 12 -20 21 -15 46 9 43 -9 62 -57 62 -39 0 -39 0
-39 40 l0 40 -50 0 -50 0 0 -80 0 -80 -28 0 c-16 0 -32 8 -40 20 -9 15 -23 20
-52 20 -29 0 -43 -5 -52 -20 -8 -12 -24 -20 -40 -20 l-28 0 0 80 0 80 -50 0
-50 0 0 -289z m80 259 c0 -5 -13 -10 -30 -10 -16 0 -30 5 -30 10 0 6 14 10 30
10 17 0 30 -4 30 -10z m340 0 c0 -5 -13 -10 -30 -10 -16 0 -30 5 -30 10 0 6
14 10 30 10 17 0 30 -4 30 -10z m-340 -78 c0 -26 5 -53 12 -60 19 -19 66 -14
80 8 9 14 24 20 48 20 24 0 39 -6 48 -20 14 -22 61 -27 80 -8 7 7 12 34 12 60
0 46 1 48 29 48 28 0 29 -2 33 -57 4 -51 2 -60 -17 -75 -40 -31 -46 -65 -43
-231 l3 -157 -34 0 -34 0 7 46 c3 26 6 62 6 80 0 18 7 39 15 48 8 8 15 26 15
40 0 25 -3 26 -55 26 -50 0 -55 2 -55 22 0 12 7 30 17 40 22 25 8 36 -17 13
-11 -10 -20 -31 -20 -47 0 -27 -1 -28 -55 -28 -52 0 -55 -1 -55 -26 0 -14 7
-32 15 -40 8 -9 15 -30 15 -48 0 -18 3 -54 6 -80 l7 -46 -62 0 -61 0 0 260 0
260 30 0 c29 0 30 -1 30 -48z m440 -7 c0 -11 -11 -15 -40 -15 -29 0 -40 4 -40
15 0 11 11 15 40 15 29 0 40 -4 40 -15z m-10 -46 c0 -6 16 -25 35 -43 60 -57
51 -66 -65 -66 -116 0 -125 9 -65 66 19 18 35 37 35 43 0 6 14 11 30 11 17 0
30 -5 30 -11z m70 -209 l0 -80 -100 0 -100 0 0 80 0 80 100 0 100 0 0 -80z
m-260 0 c0 -6 -40 -10 -100 -10 -60 0 -100 4 -100 10 0 6 40 10 100 10 60 0
100 -4 100 -10z m-25 -97 c-11 -118 -7 -113 -75 -113 -68 0 -64 -5 -75 113
l-7 67 82 0 82 0 -7 -67z m283 -55 c-3 -46 -6 -53 -25 -56 -16 -2 -23 2 -23
12 0 20 -16 21 -24 1 -7 -20 -56 -20 -56 0 0 19 -16 19 -24 0 -3 -8 -15 -15
-26 -15 -18 0 -20 6 -20 55 l0 55 101 0 100 0 -3 -52z"/>
</g>
</svg>
