<?xml version="1.0" standalone="no"?>
<!DOCTYPE svg PUBLIC "-//W3C//DTD SVG 20010904//EN"
 "http://www.w3.org/TR/2001/REC-SVG-20010904/DTD/svg10.dtd">
<svg version="1.0" xmlns="http://www.w3.org/2000/svg"
 width="100.000000pt" height="100.000000pt" viewBox="0 0 100.000000 100.000000"
 preserveAspectRatio="xMidYMid meet">

<g transform="translate(0.000000,100.000000) scale(0.100000,-0.100000)"
fill="#000000" stroke="none">
<path d="M436 814 c2 -51 -3 -86 -25 -153 -37 -115 -46 -200 -30 -312 9 -71 9
-102 0 -144 -20 -89 -13 -95 119 -95 132 0 139 6 119 95 -9 42 -9 73 0 144 16
112 7 197 -30 312 -22 67 -27 102 -25 153 l3 66 -67 0 -67 0 3 -66z m109 -19
c1 -39 10 -87 28 -137 15 -42 27 -81 27 -87 0 -7 -35 -11 -101 -11 l-101 0 7
33 c4 17 14 49 22 70 14 35 18 37 62 39 l46 1 -42 4 c-46 4 -46 5 -37 51 5 25
12 32 38 35 29 4 29 4 -6 5 -33 2 -38 5 -38 25 0 33 9 38 55 35 l40 -3 0 -60z
m63 -312 l3 -63 -111 0 -110 0 0 58 c0 32 3 62 7 66 4 4 52 5 107 4 l101 -3 3
-62z m-167 -90 c1 -17 2 -17 6 0 3 13 15 17 54 17 40 0 49 -3 50 -17 1 -17 2
-17 6 0 3 10 14 17 29 17 25 0 25 -1 17 -57 -9 -70 -9 -112 2 -175 l8 -48
-113 0 -113 0 8 48 c11 63 11 105 2 175 -8 57 -8 57 17 57 18 0 26 -6 27 -17z"/>
<path d="M531 624 c0 -11 3 -14 6 -6 3 7 2 16 -1 19 -3 4 -6 -2 -5 -13z"/>
<path d="M451 334 c0 -11 3 -14 6 -6 3 7 2 16 -1 19 -3 4 -6 -2 -5 -13z"/>
<path d="M462 270 c0 -14 2 -19 5 -12 2 6 2 18 0 25 -3 6 -5 1 -5 -13z"/>
<path d="M532 250 c0 -14 2 -19 5 -12 2 6 2 18 0 25 -3 6 -5 1 -5 -13z"/>
<path d="M541 204 c0 -11 3 -14 6 -6 3 7 2 16 -1 19 -3 4 -6 -2 -5 -13z"/>
<path d="M442 160 c0 -14 2 -19 5 -12 2 6 2 18 0 25 -3 6 -5 1 -5 -13z"/>
<path d="M552 160 c0 -14 2 -19 5 -12 2 6 2 18 0 25 -3 6 -5 1 -5 -13z"/>
</g>
</svg>
