<?xml version="1.0" standalone="no"?>
<!DOCTYPE svg PUBLIC "-//W3C//DTD SVG 20010904//EN"
 "http://www.w3.org/TR/2001/REC-SVG-20010904/DTD/svg10.dtd">
<svg version="1.0" xmlns="http://www.w3.org/2000/svg"
 width="64.000000pt" height="64.000000pt" viewBox="0 0 64.000000 64.000000"
 preserveAspectRatio="xMidYMid meet">

<g transform="translate(0.000000,64.000000) scale(0.100000,-0.100000)"
fill="#000000" stroke="none">
<path d="M348 589 c-16 -27 -18 -60 -18 -271 0 -227 1 -242 21 -269 20 -29 21
-29 123 -29 142 0 136 -13 136 298 0 211 -2 244 -17 271 l-18 31 -105 0 -105
0 -17 -31z m230 -6 c3 -10 -13 -13 -57 -13 -34 0 -61 -4 -61 -10 0 -6 28 -10
65 -10 51 0 65 -3 65 -15 0 -10 -11 -15 -35 -15 -54 0 -75 -28 -75 -98 0 -60
-11 -82 -42 -82 -39 0 -58 -36 -58 -109 0 -49 -4 -72 -15 -81 -13 -11 -15 12
-15 194 l0 206 25 0 c14 0 25 5 25 10 0 6 -9 10 -20 10 -13 0 -18 5 -13 15 4
13 23 15 106 13 69 -2 102 -7 105 -15z m12 -147 l0 -64 -44 -22 c-45 -21 -76
-66 -76 -109 0 -43 33 -91 77 -112 24 -11 43 -25 43 -30 0 -5 -54 -9 -120 -9
-129 0 -139 5 -95 46 22 20 25 31 25 92 0 70 10 92 42 92 37 0 58 36 58 98 0
67 11 82 57 82 l33 0 0 -64z m0 -196 c0 -126 -7 -135 -66 -76 -28 28 -34 42
-34 76 0 34 6 48 34 76 59 59 66 50 66 -76z m-12 -182 c-3 -9 -36 -14 -105
-16 -83 -2 -102 0 -106 13 -6 13 9 15 104 15 84 0 110 -3 107 -12z"/>
<path d="M113 523 c-7 -2 -13 -16 -13 -29 0 -16 -6 -24 -17 -24 -10 0 -26 -14
-35 -31 -26 -45 -26 -343 -1 -388 l18 -31 105 0 105 0 18 31 c25 45 25 343 0
388 -17 29 -22 31 -75 31 -54 0 -58 1 -58 24 0 18 -21 41 -33 35 -1 0 -8 -3
-14 -6z m33 -24 c10 -17 -13 -36 -27 -22 -12 12 -4 33 11 33 5 0 12 -5 16 -11z
m132 -66 c2 -9 -11 -13 -47 -13 -28 0 -51 -4 -51 -10 0 -5 25 -10 55 -10 42 0
55 -3 55 -15 0 -10 -11 -15 -35 -15 -41 0 -75 -29 -75 -63 0 -28 -17 -47 -42
-47 -27 0 -58 -36 -58 -69 0 -16 -7 -34 -15 -41 -13 -11 -15 3 -15 119 0 124
1 131 20 131 11 0 20 5 20 10 0 6 -7 10 -15 10 -9 0 -12 6 -8 15 4 13 23 15
106 13 69 -2 102 -7 105 -15z m12 -103 c0 -12 -9 -24 -22 -29 -83 -32 -83
-150 0 -182 51 -20 19 -29 -98 -29 -129 0 -139 5 -95 46 15 14 25 34 25 52 0
32 16 52 42 52 25 0 58 36 58 63 0 32 18 47 57 47 26 0 33 -4 33 -20z m0 -120
c0 -49 -4 -80 -10 -80 -23 0 -60 50 -60 80 0 30 37 80 60 80 6 0 10 -31 10
-80z m-12 -152 c-3 -9 -36 -14 -105 -16 -83 -2 -102 0 -106 13 -6 13 9 15 104
15 84 0 110 -3 107 -12z"/>
</g>
</svg>
