<?xml version="1.0" standalone="no"?>
<!DOCTYPE svg PUBLIC "-//W3C//DTD SVG 20010904//EN"
 "http://www.w3.org/TR/2001/REC-SVG-20010904/DTD/svg10.dtd">
<svg version="1.0" xmlns="http://www.w3.org/2000/svg"
 width="100.000000pt" height="100.000000pt" viewBox="0 0 100.000000 100.000000"
 preserveAspectRatio="xMidYMid meet">

<g transform="translate(0.000000,100.000000) scale(0.100000,-0.100000)"
fill="#000000" stroke="none">
<path d="M170 847 c0 -8 11 -41 25 -75 24 -60 25 -69 25 -297 l0 -235 164 0
164 0 21 -34 c54 -87 188 -86 243 1 41 67 18 168 -47 203 l-25 13 0 154 c0
139 2 159 24 213 14 34 20 62 15 66 -9 5 -28 -32 -54 -106 l-12 -35 -235 -3
-235 -2 -29 75 c-26 69 -44 94 -44 62z m250 -202 l0 -45 55 0 55 0 0 45 0 45
90 0 90 0 0 -70 0 -70 -90 0 c-71 0 -92 3 -96 15 -9 24 -24 17 -24 -10 l0 -25
105 0 c98 0 105 -1 105 -20 0 -19 -7 -20 -105 -20 l-105 0 0 -116 c0 -114 0
-115 -22 -112 -22 3 -23 7 -26 116 l-3 112 -104 0 c-98 0 -105 1 -105 20 0 19
7 20 105 20 l105 0 0 25 c0 14 -4 25 -10 25 -5 0 -10 -7 -10 -15 0 -12 -17
-15 -95 -15 l-95 0 0 70 0 70 90 0 90 0 0 -45z m90 10 c0 -33 -2 -35 -35 -35
-33 0 -35 2 -35 35 0 33 2 35 35 35 33 0 35 -2 35 -35z m-80 -295 l0 -100 -95
0 -95 0 0 100 0 100 95 0 95 0 0 -100z m280 85 c0 -10 -10 -15 -26 -15 -36 0
-97 -36 -116 -68 -9 -15 -19 -44 -23 -64 -13 -69 -25 -39 -25 62 l0 100 95 0
c78 0 95 -3 95 -15z m67 -79 c27 -29 33 -44 33 -81 0 -38 -6 -52 -34 -83 -31
-34 -39 -37 -86 -37 -47 0 -55 3 -86 37 -28 31 -34 46 -34 81 0 114 131 166
207 83z"/>
<path d="M310 360 c0 -5 20 -10 45 -10 25 0 45 5 45 10 0 6 -20 10 -45 10 -25
0 -45 -4 -45 -10z"/>
<path d="M270 320 c0 -6 28 -10 65 -10 37 0 65 4 65 10 0 6 -28 10 -65 10 -37
0 -65 -4 -65 -10z"/>
<path d="M600 316 c-16 -20 -9 -56 13 -70 13 -8 24 -7 47 6 28 16 32 16 60 0
37 -21 65 -8 65 33 0 41 -28 54 -66 33 -27 -16 -33 -16 -52 -3 -27 19 -51 19
-67 1z m55 -42 c-24 -18 -34 -18 -42 2 -8 22 16 35 41 22 19 -10 19 -11 1 -24z
m115 11 c0 -21 -17 -27 -42 -14 -20 11 -21 12 -4 25 20 14 46 8 46 -11z"/>
</g>
</svg>
