<svg width="24.000000pt" height="24.000000pt" viewBox="0 0 24.000000 24.000000" xmlns="http://www.w3.org/2000/svg">
  <g transform="translate(0.000000,24.000000) scale(0.100000,-0.100000)" fill="#ffffff" stroke="none">
    <path d="M0 120 l0 -120 120 0 120 0 0 120 0 120 -120 0 -120 0 0 -120z" />
  </g>
  <g transform="translate(0.000000,24.000000) scale(0.100000,-0.100000)" fill="#000000" stroke="none" />
  <g transform="translate(0.000000,24.000000) scale(0.100000,-0.100000)" fill="#000000" stroke="none" />
  <g transform="translate(0.000000,24.000000) scale(0.100000,-0.100000)" fill="#000000" stroke="none" />
  <g transform="translate(0.000000,24.000000) scale(0.100000,-0.100000)" fill="#000000" stroke="none" />
  <g transform="translate(0.000000,24.000000) scale(0.100000,-0.100000)" fill="#000000" stroke="none" />
  <g transform="translate(0.000000,24.000000) scale(0.100000,-0.100000)" fill="#000000" stroke="none" />
  <g transform="translate(0.000000,24.000000) scale(0.100000,-0.100000)" fill="#000000" stroke="none" />
  <g transform="translate(0.000000,24.000000) scale(0.100000,-0.100000)" fill="#ffffff" stroke="none" />
  <g transform="translate(0.000000,24.000000) scale(0.100000,-0.100000)" fill="#00ffff" stroke="none" />
  <g transform="translate(0.000000,24.000000) scale(0.100000,-0.100000)" fill="#ff00ff" stroke="none" />
  <g transform="translate(0.000000,24.000000) scale(0.100000,-0.100000)" fill="#000000" stroke="none" />
  <g transform="translate(0.000000,24.000000) scale(0.100000,-0.100000)" fill="#0000ff" stroke="none" />
  <g transform="translate(0.000000,24.000000) scale(0.100000,-0.100000)" fill="#00ff00" stroke="none" />
  <g transform="translate(0.000000,24.000000) scale(0.100000,-0.100000)" fill="#ff0000" stroke="none" />
  <g transform="translate(0.000000,24.000000) scale(0.100000,-0.100000)" fill="#c0c0c0" stroke="none" />
  <g transform="translate(0.000000,24.000000) scale(0.100000,-0.100000)" fill="#808080" stroke="none" />
  <g transform="translate(0.000000,24.000000) scale(0.100000,-0.100000)" fill="#008080" stroke="none" />
  <g transform="translate(0.000000,24.000000) scale(0.100000,-0.100000)" fill="#800080" stroke="none" />
  <g transform="translate(0.000000,24.000000) scale(0.100000,-0.100000)" fill="#000080" stroke="none" />
  <g transform="translate(0.000000,24.000000) scale(0.100000,-0.100000)" fill="#808000" stroke="none" />
  <g transform="translate(0.000000,24.000000) scale(0.100000,-0.100000)" fill="#008000" stroke="none" />
  <g transform="translate(0.000000,24.000000) scale(0.100000,-0.100000)" fill="#800000" stroke="none" />
  <g transform="translate(0.000000,24.000000) scale(0.100000,-0.100000)" fill="#ffff00" stroke="none" />
  <g transform="translate(0.000000,24.000000) scale(0.100000,-0.100000)" fill="#000000" stroke="none" />
</svg>