<?xml version="1.0" standalone="no"?>
<!DOCTYPE svg PUBLIC "-//W3C//DTD SVG 20010904//EN"
 "http://www.w3.org/TR/2001/REC-SVG-20010904/DTD/svg10.dtd">
<svg version="1.0" xmlns="http://www.w3.org/2000/svg"
 width="30.000000pt" height="30.000000pt" viewBox="0 0 30.000000 30.000000"
 preserveAspectRatio="xMidYMid meet">

<g transform="translate(0.000000,30.000000) scale(0.100000,-0.100000)"
fill="#000000" stroke="none">
<path d="M50 150 c0 -73 4 -120 10 -120 6 0 10 27 10 60 l0 60 50 0 51 0 -3
58 -3 57 -57 3 -58 3 0 -121z"/>
<path d="M188 183 c-3 -46 -4 -48 -36 -51 -25 -3 -32 -8 -30 -20 3 -14 17 -18
76 -20 73 -3 74 -3 66 20 -10 29 -11 67 0 96 7 20 4 22 -33 22 l-40 0 -3 -47z"/>
</g>
</svg>
